#!OML:ASF F:\VICON\USERDATA\INSTALL\rory3\rory3.ASF
:FULLY-SPECIFIED
:DEGREES
56
root 0.8149774287393442 17.79544438424418 40.73800988792094 -3.9714845915075356 -2.682096839287005 4.004614924501089
lfemur 12.799745223029305 -5.136793127642284 -28.39718721789213
ltibia 18.376475375402926
lfoot -2.130241853816626 -8.276412362399661
ltoes -4.552999531083676
rfemur -26.36847740911186 0.9638397052700003 18.121816609235726
rtibia 42.12678643057717
rfoot -7.049154620750048 0.5338671816394056
rtoes 0.11853974273052881
lowerback 9.437199072006925 -1.3335548601793517 -3.6643103769674847
upperback 0.11346136084065109 -2.306688255316738 0.9945501651640187
thorax -4.863462173300466 -1.1380287825394892 3.103695983897323
lowerneck -16.371066647576576 -2.579206200376348 -2.2573273757613945
upperneck 22.375846130685023 -3.1145575160604864 0.5085957916934875
head 9.84672216077642 -1.5824048419042098 0.24758251261629904
lclavicle 3.3550858194343715e-16 -8.512959636959351e-16
lhumerus -25.057359397397455 -0.6974176071276501 79.211150218603
lradius 28.812860163990223
lwrist 5.720267214929454
lhand -28.129609631820433 20.43320770263467
lfingers nan
lthumb -1.456594491444342 50.558373350930765
rclavicle 4.0695282680702575e-16 -8.017438496926242e-16
rhumerus -33.77975652614661 -20.95599579208942 -80.39238204736799
rradius 30.748909056315615
rwrist -0.48984508293398177
rhand -17.970631423781704 20.942588256817874
rfingers nan
rthumb 8.546943930746254 -8.146243943400226
57
root 0.8714714854065543 17.828380032084524 41.6631698105426 -3.147422139594401 -2.5876130417870966 2.474468336884616
lfemur 12.349404594334704 -4.804299097357 -26.709123021940577
ltibia 22.00922298063214
lfoot -2.419876110076875 -7.9813347756793
ltoes -2.9997540772779874
rfemur -25.75831612543905 1.5372769615338366 20.031247772578137
rtibia 36.82953706404992
rfoot -7.878026748456009 -0.31805523000465197
rtoes -0.5390973409337114
lowerback 9.175130375826237 -1.667921281130095 -2.645978133011498
upperback 0.06102168058591918 -2.5822226332268476 1.3163174451252648
thorax -4.8081888596745985 -1.2722256570929638 3.2310585713815296
lowerneck -16.33980757766812 -2.5646442153495643 -2.32725881764224
upperneck 22.52831243957871 -3.071354835964379 0.3081300823481982
head 9.887393584617593 -1.5731633474902942 0.17091590215152153
lclavicle 3.2865454164798486e-16 -8.556270872285662e-16
lhumerus -25.294161027951702 -0.7808114665055834 79.16950974567526
lradius 28.50016803920789
lwrist 5.9402319229811695
lhand -28.202990471393896 20.224988917347762
lfingers nan
lthumb -1.461748654180867 50.509109384874705
rclavicle 4.039211254833609e-16 -8.034438517821278e-16
rhumerus -34.329765928944134 -21.696182917584633 -79.3100897579648
rradius 31.386057924201104
rwrist 0.6354651369408408
rhand -17.992642008295345 20.89465989451598
rfingers nan
rthumb 8.568892719044202 -8.111815646516153
58
root 0.9058388853890972 17.85289441523848 41.84617223415754 -2.9783339738260315 -3.0433413504563904 1.6511858480177029
lfemur 11.459922452750032 -4.163162936147889 -25.432490424432913
ltibia 26.83452722774609
lfoot -3.1055929718231794 -7.046351550456722
ltoes -2.404501274867577
rfemur -24.827180509186576 2.181233965527598 21.315478932072025
rtibia 32.4315490494848
rfoot -8.430863143985816 -2.2659234223693585
rtoes -0.8467323274746819
lowerback 9.122788828723603 -1.687748010910473 -2.143922357704554
upperback 0.031059999043628245 -2.55206767101911 1.5781063688041632
thorax -4.793867224456122 -1.2708459743730165 3.2343259799143023
lowerneck -16.32615645488376 -2.5649070994966263 -2.320902159502273
upperneck 22.56475669537033 -3.0598584273816027 0.15805840231559531
head 9.898419429405623 -1.5750401570913954 0.10474358354977245
lclavicle 3.225271571215719e-16 -8.597219777188185e-16
lhumerus -25.700916404867936 -0.7545218820823196 79.20304944327613
lradius 27.903271306698684
lwrist 6.124974978143991
lhand -28.276191382560874 20.17130629911381
lfingers nan
lthumb -1.573535630701779 50.31942080293402
rclavicle 4.0204630322609383e-16 -8.045366976522673e-16
rhumerus -34.567336053685864 -22.565465109944277 -78.20790974068906
rradius 31.855046489368483
rwrist 2.046182926232442
rhand -18.01081068982719 20.86351076982515
rfingers nan
rthumb 8.580745400220287 -8.10636728849098
59
root 0.9545221107981035 17.867312770863077 42.2596419299006 -2.932887652752525 -3.3315805899092594 0.6464515990811732
lfemur 9.982089941694355 -3.5148111190559232 -23.734855684153473
ltibia 32.5899587295958
lfoot -3.5812905247011537 -5.792064492311457
ltoes -2.1220699135807815
rfemur -23.86225689537404 2.7383239776269708 22.5427108618777
rtibia 29.368128801633475
rfoot -8.98089571498699 -4.573438001146636
rtoes -0.2100371907975238
lowerback 9.148824117295929 -1.7026655380440991 -1.5103721637926175
upperback 0.007678965305503743 -2.427583007474466 1.8036817547775041
thorax -4.852731332351112 -1.2219939200396435 3.15675595261739
lowerneck -16.35043280638529 -2.5752738081476094 -2.2728995846095827
upperneck 22.50566284803819 -3.070863132534408 0.06582567306815945
head 9.875468200038235 -1.5858762214916395 0.056226099289699794
lclavicle 3.185298162481038e-16 -8.626961919190069e-16
lhumerus -26.179344859329955 -0.6374829603584677 79.30351027602379
lradius 27.0356540251277
lwrist 6.184697116824809
lhand -28.34857882911986 20.14940904164601
lfingers nan
lthumb -1.5878695747176361 50.345184675687506
rclavicle 4.0138820293878093e-16 -8.050838322691043e-16
rhumerus -34.48977979105692 -23.44355557877821 -77.1982548914221
rradius 32.13146736501825
rwrist 3.1948175258623204
rhand -18.046829704588518 20.79803134570129
rfingers nan
rthumb 8.62647972761612 -8.045922254173087
60
root 0.9956971211465154 17.888926898752327 42.69012668724518 -2.605198180317586 -3.1885166731692864 -0.9229453798001861
lfemur 7.739753353604776 -2.840151667689031 -21.24543793006552
ltibia 38.966521072263035
lfoot -4.166947102606583 -4.132797922251745
ltoes -2.4156761204208106
rfemur -22.522933294689224 3.1054142168425756 24.22669918962844
rtibia 27.65349042078949
rfoot -10.136027922295222 -6.400971598138479
rtoes 1.0527028130722065
lowerback 9.179048014824218 -1.657260985491062 -0.31609513202842465
upperback 0.0035606922477599 -2.1402217747087633 2.048459949469363
thorax -4.957539984269357 -1.0962075823304078 3.0036255491132877
lowerneck -16.391385598904954 -2.587037235267282 -2.175773643303303
upperneck 22.385971292286953 -3.0884611701438907 0.007536691040374688
head 9.827869310788989 -1.5982150091979772 0.024154931285437265
lclavicle 3.1689649408675873e-16 -8.642570257400878e-16
lhumerus -26.716519101473825 -0.44573169195660967 79.45105867883909
lradius 25.946530585974287
lwrist 6.2581703596433575
lhand -28.395312183951795 20.160217772041634
lfingers nan
lthumb -1.6450628378897125 50.16439530268009
rclavicle 4.01759619469178e-16 -8.051133755033618e-16
rhumerus -34.142615923427336 -24.206731374320093 -76.36931263524217
rradius 32.22250136189785
rwrist 3.6371659973248383
rhand -18.077337320792967 20.786852432197918
rfingers nan
rthumb 8.648312174029556 -8.054169543642589
61
root 1.0322669927275685 17.89897198577814 43.537829694223454 -2.770526548804214 -3.033644770590835 -0.625533445814074
lfemur 5.463204306484089 -2.19299034279258 -20.34187761241102
ltibia 44.950364779181854
lfoot -4.73609492297774 -2.685633143874498
ltoes -3.23244742774398
rfemur -20.14715078740771 2.8606437870451953 24.42700363654161
rtibia 26.74845279286039
rfoot -12.105380235403302 -7.683859553499491
rtoes 2.032496776970131
lowerback 9.310219299576815 -1.5549350671457076 -0.5059694847884837
upperback 0.06829226513417792 -2.0454917542212456 2.0130942045265483
thorax -4.962295289176382 -1.048912799848581 2.900751560234705
lowerneck -16.466404362383308 -2.6107198772673446 -2.077401423337546
upperneck 22.22569983004702 -3.12933690677814 -0.017737850131572808
head 9.765255546043951 -1.6183666770893652 -0.0034720113613456727
lclavicle 3.178505055312232e-16 -8.642120669792292e-16
lhumerus -27.30100470327279 -0.13429129283562258 79.63845876256731
lradius 24.709812856797186
lwrist 6.5405013032380825
lhand -28.45330041920631 20.12986956350886
lfingers nan
lthumb -1.630794486465134 50.161495040746324
rclavicle 4.018134135891583e-16 -8.055896323803182e-16
rhumerus -33.6180532811412 -24.78081432864922 -75.80160419827025
rradius 32.16106230936644
rwrist 3.4360144975069473
rhand -18.15890821869902 20.692706830958365
rfingers nan
rthumb 8.623896266318258 -8.15231954803533
